# xmcd
#
# Track frame offsets: 
#        150
#        20833
#        43072
#        59733
#        76928
#        109820
#        122260
#        136817
#        151763
#        170400
#        181934
#        196845
#
# Disc length: 2876 seconds
#
# Revision: 0
# Processed by: cddbd v1.4PL0 Copyright (c) Steve Scherf et al.
# Submitted via: ExactAudioCopy v0.90b4
#
DISCID=970b3a0c
DTITLE=Van Morrison - A Sense Of Blue
DYEAR=1984
DGENRE=Celtic
TTITLE0=Mr. Thomas
TTITLE1=What Would I Do
TTITLE2=You Don't Know Me
TTITLE3=Tore Down A La Rimbaud
TTITLE4=A Sense Of Wonder
TTITLE5=Boffyflow And Spike
TTITLE6=Ancient Of Days
TTITLE7=A New Kind Of Man
TTITLE8=The Master's Eyes
TTITLE9=If You Only Knew
TTITLE10=Benediction
TTITLE11=Crazy Jane On God
EXTD=
EXTT0=
EXTT1=
EXTT2=
EXTT3=
EXTT4=
EXTT5=
EXTT6=
EXTT7=
EXTT8=
EXTT9=
EXTT10=
EXTT11=
PLAYORDER=
